<?xml version="1.0" standalone="no"?>
<!DOCTYPE svg PUBLIC "-//W3C//DTD SVG 20010904//EN"
 "http://www.w3.org/TR/2001/REC-SVG-20010904/DTD/svg10.dtd">
<svg version="1.0" xmlns="http://www.w3.org/2000/svg"
 width="260.000000pt" height="260.000000pt" viewBox="0 0 260.000000 260.000000"
 preserveAspectRatio="xMidYMid meet">
<metadata>
Created by potrace 1.11, written by Peter Selinger 2001-2013
</metadata>
<g transform="translate(0.000000,260.000000) scale(0.100000,-0.100000)"
fill="#000000" stroke="none">
<path d="M0 1300 l0 -1300 1300 0 1300 0 0 1300 0 1300 -1300 0 -1300 0 0
-1300z m1382 386 c-3 -38 -1 -44 20 -49 12 -4 33 -7 46 -7 19 0 22 -5 22 -41
0 -34 -3 -40 -17 -35 -10 3 -34 8 -54 11 l-36 7 -7 -64 c-4 -34 -10 -80 -13
-100 -5 -36 -4 -39 33 -54 117 -48 162 -136 115 -224 -24 -47 -71 -77 -141
-91 l-58 -11 -7 -54 c-6 -54 -7 -54 -41 -54 l-35 0 6 54 c8 60 16 54 -87 71
-37 6 -38 7 -38 47 0 34 3 39 18 33 9 -4 41 -10 70 -14 60 -9 58 -12 66 69 4
30 9 73 12 96 6 41 6 41 -39 58 -26 10 -62 35 -82 58 -35 38 -37 44 -33 95 4
42 11 60 34 84 37 39 57 50 119 64 45 10 50 14 53 41 5 48 10 54 44 54 33 0
33 0 30 -44z"/>
<path d="M1232 1555 c-59 -26 -62 -90 -6 -134 45 -35 48 -31 60 82 7 75 4 77
-54 52z"/>
<path d="M1314 1194 c-5 -47 -7 -87 -4 -89 11 -7 85 25 97 42 24 32 16 79 -18
107 -54 46 -65 38 -75 -60z"/>
</g>
</svg>
