<?xml version="1.0" standalone="no"?>
<!DOCTYPE svg PUBLIC "-//W3C//DTD SVG 20010904//EN"
 "http://www.w3.org/TR/2001/REC-SVG-20010904/DTD/svg10.dtd">
<svg version="1.0" xmlns="http://www.w3.org/2000/svg"
 width="260.000000pt" height="260.000000pt" viewBox="0 0 260.000000 260.000000"
 preserveAspectRatio="xMidYMid meet">
<metadata>
Created by potrace 1.11, written by Peter Selinger 2001-2013
</metadata>
<g transform="translate(0.000000,260.000000) scale(0.100000,-0.100000)"
fill="#000000" stroke="none">
<path d="M0 1300 l0 -1300 1300 0 1300 0 0 1300 0 1300 -1300 0 -1300 0 0
-1300z m1429 813 c22 -6 23 -9 17 -72 -4 -36 -9 -82 -12 -103 l-5 -36 50 -11
c63 -13 119 -36 143 -58 13 -12 18 -31 18 -76 0 -59 0 -59 -27 -54 -16 3 -57
18 -93 33 -57 25 -77 28 -170 29 -87 0 -112 -4 -144 -21 -54 -28 -78 -63 -84
-123 -10 -108 47 -166 235 -236 221 -83 281 -123 329 -221 24 -49 26 -63 22
-142 -3 -72 -9 -96 -33 -140 -52 -97 -141 -153 -285 -181 l-85 -17 -10 -100
c-6 -54 -14 -105 -18 -111 -9 -15 -85 -17 -106 -4 -11 7 -11 27 -2 111 6 56 9
105 6 109 -2 5 -24 11 -48 14 -59 8 -155 45 -178 68 -21 21 -26 102 -9 129 10
16 2 18 126 -34 159 -67 380 -46 442 41 49 68 47 162 -4 222 -36 43 -77 66
-200 112 -210 78 -267 118 -315 214 -29 60 -31 70 -27 147 9 163 96 254 279
291 l64 13 10 97 c7 68 15 101 25 107 17 11 55 12 89 3z"/>
</g>
</svg>
